<?xml version="1.0" standalone="no"?>
<!DOCTYPE svg PUBLIC "-//W3C//DTD SVG 20010904//EN"
 "http://www.w3.org/TR/2001/REC-SVG-20010904/DTD/svg10.dtd">
<svg version="1.0" xmlns="http://www.w3.org/2000/svg"
 width="1000.000000pt" height="1000.000000pt" viewBox="0 0 1000.000000 1000.000000"
 preserveAspectRatio="xMidYMid meet">
<metadata>
Created by potrace 1.11, written by Peter Selinger 2001-2013
</metadata>
<g transform="translate(0.000000,1000.000000) scale(0.100000,-0.100000)"
fill="#000000" stroke="none">
<path d="M0 8102 l0 -1899 52 -74 c60 -86 156 -205 188 -234 l22 -20 -7 60
c-21 197 -48 333 -96 488 -26 86 -29 103 -18 134 23 70 111 92 166 42 39 -37
123 -336 139 -498 4 -33 10 -61 14 -61 11 0 58 166 75 264 8 49 15 138 15 198
0 123 11 158 61 184 43 22 91 11 123 -27 25 -29 26 -35 25 -162 0 -73 -6 -168
-13 -212 -8 -44 -12 -82 -10 -84 1 -2 27 48 58 110 49 103 103 253 120 335 18
85 122 117 178 55 37 -41 36 -80 -2 -210 -85 -286 -241 -546 -473 -788 -66
-69 -107 -120 -107 -133 0 -24 -3 -16 230 -565 100 -236 237 -560 305 -720 68
-159 198 -468 290 -685 487 -1149 535 -1265 535 -1296 0 -39 -39 -89 -76 -98
-35 -9 -89 10 -107 37 -8 13 -47 99 -87 192 -39 94 -344 814 -677 1600 -333
787 -612 1437 -620 1445 -11 12 -43 15 -158 15 l-145 0 0 -770 0 -770 710
-710 710 -710 0 -43 c0 -59 -33 -92 -92 -92 l-43 0 -642 642 -643 643 2 -459
3 -459 565 -229 c956 -386 994 -402 1018 -425 24 -24 30 -89 12 -124 -12 -22
-60 -49 -89 -49 -10 0 -353 135 -760 300 -407 165 -743 300 -746 300 -3 0 -5
-130 -5 -290 l0 -290 550 0 550 0 30 -27 c50 -44 40 -126 -17 -152 -16 -8
-191 -11 -568 -11 l-545 0 0 -310 c0 -170 2 -310 5 -310 3 0 338 142 745 315
420 179 753 315 770 315 72 0 121 -94 81 -156 -20 -33 26 -13 -1221 -543
l-375 -159 -2 -444 -3 -443 638 638 c350 351 644 643 652 648 24 14 73 10 97
-9 26 -20 42 -67 34 -98 -3 -12 -271 -289 -595 -615 l-589 -594 423 -3 c233
-1 427 1 431 5 4 5 139 334 299 733 311 773 314 780 380 780 62 0 110 -45 110
-101 0 -13 -126 -335 -280 -716 -154 -381 -280 -695 -280 -698 0 -3 121 -5
270 -5 l269 0 3 511 3 511 28 24 c40 34 90 32 128 -5 l29 -29 0 -506 0 -506
290 0 c160 0 290 2 290 3 0 4 -111 267 -394 934 -108 255 -196 472 -196 483 0
36 30 81 64 95 37 16 95 6 116 -20 7 -9 153 -347 325 -753 l313 -737 413 -3
414 -2 -598 598 c-580 581 -597 598 -597 635 0 54 43 97 97 97 37 0 55 -18
703 -665 l665 -665 828 0 827 0 0 124 c0 104 -3 127 -17 144 -10 11 -133 66
-273 122 -140 57 -336 136 -435 176 -99 40 -585 237 -1080 437 -495 201 -1008
408 -1140 462 -343 138 -334 134 -350 166 -22 42 -18 83 11 118 52 63 -16 86
1245 -424 635 -257 1364 -552 1621 -656 257 -104 476 -189 487 -189 13 0 62
42 128 108 227 228 479 387 761 482 168 57 226 51 257 -24 33 -79 -8 -120
-167 -170 -100 -31 -366 -151 -356 -161 2 -1 32 4 68 12 36 7 133 17 217 20
l152 6 30 -31 c61 -60 31 -163 -50 -176 -19 -3 -83 -7 -144 -10 -60 -3 -141
-13 -180 -21 -93 -20 -245 -66 -245 -75 0 -4 30 -10 66 -14 142 -15 419 -81
476 -114 59 -34 65 -107 13 -159 -41 -41 -55 -41 -205 1 -130 36 -294 65 -415
72 l-100 7 75 -62 c41 -34 111 -87 155 -117 l80 -54 1853 0 1852 0 0 5000 0
5000 -5000 0 -5000 0 0 -1898z m8075 794 c29 -29 30 -34 44 -196 6 -69 24
-174 38 -235 l28 -110 6 125 c11 202 34 312 72 348 36 34 79 38 111 10 37 -32
44 -76 29 -188 -20 -153 -12 -541 10 -490 4 8 22 68 42 133 62 207 133 390
161 415 45 40 106 25 130 -33 22 -53 18 -79 -41 -255 -55 -163 -139 -479 -131
-487 8 -8 98 81 162 160 64 79 128 177 180 277 49 92 111 105 155 33 36 -59
32 -122 -15 -213 -53 -104 -111 -191 -189 -285 -36 -44 -64 -81 -63 -82 7 -8
121 34 186 68 72 37 210 141 210 159 0 4 14 13 31 20 27 11 34 11 57 -7 60
-44 81 -147 43 -210 -26 -42 -138 -133 -212 -173 -32 -17 -59 -32 -59 -34 0
-1 28 0 63 2 87 5 184 26 261 57 59 24 71 25 97 15 41 -17 69 -75 69 -143 0
-77 -21 -100 -118 -131 -230 -72 -493 -57 -813 48 -96 32 -139 41 -152 35 -9
-6 -58 -71 -109 -147 -266 -398 -519 -672 -774 -838 -45 -30 -93 -54 -106 -54
-61 1 -154 87 -165 153 -5 35 -4 37 43 64 263 154 464 336 694 632 101 130
230 323 230 345 0 10 -29 64 -64 119 -189 302 -287 593 -303 897 -7 132 4 166
60 200 43 26 73 25 102 -4z m-5201 -2168 c19 -16 38 -59 66 -148 37 -114 146
-357 156 -347 3 2 -2 46 -11 98 -8 52 -15 147 -15 212 l0 119 31 29 c55 51
140 32 167 -38 6 -15 13 -82 15 -148 6 -133 25 -237 66 -365 32 -97 28 -103
60 95 28 174 77 349 108 386 46 54 126 47 163 -13 25 -39 23 -53 -18 -208 -17
-63 -38 -155 -47 -205 -17 -101 -34 -285 -25 -285 9 0 134 161 187 240 27 41
78 126 113 188 35 62 72 120 84 128 63 44 156 -7 156 -86 0 -68 -112 -268
-269 -480 l-26 -34 90 47 c119 64 224 141 323 237 78 77 83 80 127 80 64 0
105 -39 105 -100 0 -40 -6 -48 -82 -127 -46 -47 -118 -111 -161 -144 -43 -32
-74 -59 -69 -59 33 0 236 81 340 136 143 75 177 80 223 35 34 -34 40 -91 13
-129 -56 -80 -398 -225 -652 -277 -136 -28 -380 -49 -456 -40 -85 11 -85 11
-255 -410 -155 -386 -328 -816 -649 -1610 -104 -258 -260 -645 -347 -860 -107
-267 -164 -397 -181 -413 -35 -31 -93 -30 -133 4 -59 50 -62 40 169 614 116
289 299 743 407 1010 107 267 232 577 278 690 311 769 415 1031 415 1046 0 9
-49 67 -110 128 -60 61 -133 140 -161 176 -136 169 -256 389 -322 590 -50 150
-51 187 -8 231 38 37 97 40 135 7z m-1067 -664 c27 -17 38 -57 53 -190 11
-100 56 -300 83 -365 l14 -34 23 75 c30 98 67 282 78 393 11 95 29 129 78 141
32 8 89 -17 104 -45 23 -43 5 -232 -40 -413 -11 -44 -18 -81 -16 -83 7 -7 108
127 156 206 26 44 57 105 70 137 42 110 108 142 172 85 47 -42 43 -81 -20
-211 -28 -58 -60 -120 -72 -137 -12 -18 -17 -33 -11 -33 16 0 192 177 240 242
64 85 129 97 180 32 48 -60 15 -121 -164 -300 -168 -169 -391 -313 -600 -389
-27 -10 -58 -25 -67 -33 -17 -14 -18 -85 -18 -1218 l0 -1202 -26 -31 c-36 -43
-93 -44 -135 -2 l-29 29 0 1199 c0 944 -3 1203 -12 1216 -7 9 -62 37 -123 62
-226 96 -388 205 -560 379 -174 175 -203 234 -147 297 22 25 36 31 67 31 36 0
44 -5 90 -58 27 -33 96 -105 153 -162 100 -99 136 -124 94 -65 -29 42 -108
202 -122 250 -16 53 -1 97 41 118 73 38 103 15 177 -138 55 -113 153 -261 197
-297 16 -14 17 -13 12 5 -36 116 -82 409 -72 456 6 27 38 62 65 72 20 8 60 -1
87 -19z m2362 -709 c47 -24 54 -57 41 -187 -7 -67 -8 -156 -4 -218 l7 -105 23
86 c32 121 80 243 105 265 14 13 36 19 66 19 37 0 49 -5 69 -28 32 -37 30 -70
-6 -160 -16 -42 -39 -114 -50 -160 -25 -103 -42 -260 -26 -233 113 188 252
369 295 384 75 26 150 -47 122 -119 -5 -13 -33 -53 -62 -89 -85 -105 -262
-390 -243 -390 12 0 189 103 259 150 39 26 101 73 139 104 56 46 75 56 106 56
95 0 129 -102 58 -170 -41 -40 -217 -169 -289 -211 -38 -23 -68 -44 -65 -46 8
-8 177 17 256 38 41 11 110 33 152 50 86 35 114 33 154 -6 34 -34 33 -93 -2
-128 -29 -30 -155 -80 -264 -106 l-75 -18 60 -8 c33 -4 123 -5 200 0 77 4 151
7 164 7 81 0 119 -91 64 -152 -35 -39 -99 -50 -303 -50 -234 0 -428 38 -643
126 -59 24 -118 44 -130 44 -16 0 -262 -240 -872 -850 l-850 -850 -41 0 c-57
0 -94 37 -94 94 0 40 3 44 479 521 1014 1017 1216 1225 1215 1254 -1 14 -22
75 -48 136 -102 247 -146 554 -115 810 12 93 23 121 61 142 30 16 53 16 87 -2z
m1805 -619 c41 -17 66 -51 66 -90 0 -16 -27 -81 -59 -145 -32 -64 -75 -161
-94 -216 -56 -164 -55 -169 10 -77 75 104 177 219 217 243 40 24 73 24 113 -1
38 -23 57 -77 42 -117 -5 -15 -36 -54 -68 -88 -106 -114 -209 -264 -259 -378
l-22 -49 48 36 c106 81 292 201 367 237 73 36 83 38 118 28 26 -7 44 -21 57
-42 43 -70 19 -120 -87 -177 -152 -84 -371 -238 -433 -306 l-25 -27 82 7 c119
9 284 41 423 81 133 38 151 41 183 24 62 -32 76 -107 29 -160 -22 -24 -50 -38
-141 -65 -109 -33 -354 -84 -409 -84 -45 -1 -5 -17 120 -50 134 -35 249 -50
374 -50 90 0 93 -1 123 -31 25 -25 31 -39 31 -74 0 -37 -5 -47 -35 -74 -35
-31 -37 -31 -148 -31 -62 0 -155 7 -207 14 -52 8 -96 13 -98 12 -5 -6 134 -74
223 -109 50 -19 127 -45 172 -57 94 -25 122 -49 130 -109 5 -37 2 -44 -31 -77
-35 -35 -39 -36 -89 -31 -75 8 -255 69 -385 132 -196 94 -376 223 -539 384
-68 67 -99 91 -118 91 -31 0 57 37 -2784 -1171 -257 -109 -457 -189 -475 -189
-69 0 -116 69 -93 137 15 47 1 40 502 253 559 238 2577 1097 2670 1136 44 19
86 42 93 51 8 12 12 62 12 162 0 316 63 602 188 861 69 142 87 169 125 185 40
18 41 18 81 1z m-10 -1937 c46 -55 29 -112 -51 -169 -54 -39 -217 -199 -233
-230 -9 -17 -4 -16 37 9 81 50 219 112 260 118 32 4 45 0 71 -22 27 -22 32
-34 32 -69 0 -54 -18 -71 -131 -123 -47 -22 -112 -57 -145 -78 -64 -41 -187
-136 -182 -140 2 -2 48 8 103 21 126 30 328 57 371 49 42 -7 74 -48 74 -92 0
-50 -42 -90 -106 -97 -217 -27 -437 -74 -492 -105 -31 -17 379 -111 486 -111
99 0 147 -96 81 -162 l-30 -31 -102 6 c-86 6 -233 31 -362 62 l-30 7 35 -31
c67 -59 198 -141 303 -191 110 -51 127 -67 127 -120 0 -45 -16 -70 -57 -86
-28 -12 -42 -13 -71 -3 -43 14 -205 93 -242 118 -52 36 -54 34 -14 -14 42 -50
145 -150 242 -235 45 -40 52 -51 52 -82 0 -56 -36 -93 -92 -93 -38 0 -53 7
-109 52 -90 72 -253 243 -321 339 -66 93 -154 257 -198 369 -17 44 -39 86 -47
93 -13 9 -272 12 -1216 12 l-1199 0 -29 29 c-42 42 -41 99 2 135 l31 26 1193
0 c1121 0 1194 1 1214 18 12 9 41 65 65 123 107 264 285 503 505 678 55 43 72
51 107 51 35 0 47 -5 68 -31z"/>
</g>
</svg>
