<svg version="1.1" id="Layer_1" xmlns="http://www.w3.org/2000/svg" xmlns:xlink="http://www.w3.org/1999/xlink" x="0px" y="0px" viewBox="0 0 397.4 437.8" style="enable-background:new 0 0 397.4 437.8;" xml:space="preserve">
<g>
	<path d="M158.3,437.8L158.3,437.8c-2.1,0-3.8-1.7-3.8-3.8V302.1c0-2.1,1.7-3.8,3.8-3.8h0
		c2.1,0,3.8,1.7,3.8,3.8v131.9C162,436.1,160.3,437.8,158.3,437.8z"/>
	<g>
		<path d="M67.3,288.6c-0.1,1,0.3,2,1,2.8c1.1,1.1,2.8,1.2,4.2,0.3c4.4-2.8,9.3-4.9,14.5-6.2
			c0.2,0,0.3,0.2,0.1,0.3c-3.7,2.4-7,5.2-9.8,8.3c-1.1,1.2-1.2,3-0.4,4.2c0.6,0.9,1.5,1.4,2.5,1.5c1,0.1,2-0.3,2.7-1.1
			c4-4.4,9.1-8.1,15-10.8c0.1-0.1,0.3,0.1,0.2,0.2c-3.7,4.6-6.8,9.6-9.3,14.7c-0.8,1.6-0.3,3.6,1.2,4.4c0.8,0.5,1.8,0.6,2.7,0.4
			c0.9-0.3,1.7-0.9,2.1-1.8c2.9-6,6.7-11.6,11.3-16.8c0.1-0.1,0.3,0,0.3,0.1c-0.3,6.8-1.5,13.5-3.5,19.8c-0.5,1.5,0.1,3.2,1.4,4
			c0.9,0.6,2,0.7,2.9,0.3c1-0.4,1.7-1.1,2-2.1c1.8-5.5,3-11.3,3.6-17.2c0-0.2,0.2-0.2,0.3,0c2.3,5.9,3.4,12.1,3.3,18
			c0,1.7,0.9,3.1,2.4,3.5c1,0.3,2.1,0.1,2.9-0.5c0.8-0.6,1.3-1.6,1.4-2.6c0.1-4.2-0.3-8.6-1.3-12.9c0-0.2,0.2-0.3,0.3-0.1
			c2.8,4.6,4.8,9.5,6.1,14.6c0.4,1.6,1.8,2.7,3.3,2.7c1,0,2-0.5,2.6-1.3c0.6-0.8,0.8-1.9,0.6-2.9c-3-11.9-9.9-23.2-19.7-31.7
			c-0.8-0.7-1-1.7-0.6-2.7l42-104c0.7-1.7-0.1-3.7-1.8-4.4l0,0c-1.7-0.7-3.7,0.1-4.4,1.8l-42,104c-0.4,1-1.3,1.6-2.3,1.5
			c-12.9-0.6-25.8,2.6-36.2,9.1C67.9,286.7,67.4,287.6,67.3,288.6z"/>
		<path d="M249.3,27.9c0.1-1-0.3-2-1-2.8c-1.1-1.1-2.8-1.2-4.2-0.3c-4.4,2.8-9.3,4.9-14.5,6.2
			c-0.2,0-0.3-0.2-0.1-0.3c3.7-2.4,7-5.2,9.8-8.3c1.1-1.2,1.2-3,0.4-4.2c-0.6-0.9-1.5-1.4-2.5-1.5c-1-0.1-2,0.3-2.7,1.1
			c-4,4.4-9.1,8.1-15,10.8c-0.1,0.1-0.3-0.1-0.2-0.2c3.7-4.6,6.8-9.6,9.3-14.7c0.8-1.6,0.3-3.6-1.2-4.4c-0.8-0.5-1.8-0.6-2.7-0.4
			c-0.9,0.3-1.7,0.9-2.1,1.8c-2.9,6-6.7,11.6-11.3,16.8c-0.1,0.1-0.3,0-0.3-0.1c0.3-6.8,1.5-13.5,3.5-19.8c0.5-1.5-0.1-3.2-1.4-4
			c-0.9-0.6-2-0.7-2.9-0.3c-1,0.4-1.7,1.1-2,2.1c-1.8,5.5-3,11.3-3.6,17.2c0,0.2-0.2,0.2-0.3,0c-2.3-5.9-3.4-12.1-3.3-18
			c0-1.7-0.9-3.1-2.4-3.5c-1-0.3-2.1-0.1-2.9,0.5c-0.8,0.6-1.3,1.6-1.4,2.6c-0.1,4.2,0.3,8.6,1.3,12.9c0,0.2-0.2,0.3-0.3,0.1
			c-2.8-4.6-4.8-9.5-6.1-14.6C188.9,1.1,187.5,0,186,0c-1,0-2,0.5-2.6,1.3c-0.6,0.8-0.8,1.9-0.6,2.9c3,11.9,9.9,23.2,19.7,31.7
			c0.8,0.7,1,1.7,0.6,2.7l-42,104c-0.7,1.7,0.1,3.7,1.8,4.4l0,0c1.7,0.7,3.7-0.1,4.4-1.8l42-104c0.4-1,1.3-1.6,2.3-1.5
			c12.9,0.6,25.8-2.6,36.2-9.1C248.6,29.9,249.1,29,249.3,27.9z"/>
	</g>
	<g>
		<path d="M288.6,249.3c1,0.1,2-0.3,2.8-1c1.1-1.1,1.2-2.8,0.3-4.2c-2.8-4.4-4.9-9.3-6.2-14.5
			c0-0.2,0.2-0.3,0.3-0.1c2.4,3.7,5.2,7,8.3,9.8c1.2,1.1,3,1.2,4.2,0.4c0.9-0.6,1.4-1.5,1.5-2.5c0.1-1-0.3-2-1.1-2.7
			c-4.4-4-8.1-9.1-10.8-15c-0.1-0.1,0.1-0.3,0.2-0.2c4.6,3.7,9.6,6.8,14.7,9.3c1.6,0.8,3.6,0.3,4.4-1.2c0.5-0.8,0.6-1.8,0.4-2.7
			c-0.3-0.9-0.9-1.7-1.8-2.1c-6-2.9-11.6-6.7-16.8-11.3c-0.1-0.1,0-0.3,0.1-0.3c6.8,0.3,13.5,1.5,19.8,3.5c1.5,0.5,3.2-0.1,4-1.4
			c0.6-0.9,0.7-2,0.3-2.9c-0.4-1-1.1-1.7-2.1-2c-5.5-1.8-11.3-3-17.2-3.6c-0.2,0-0.2-0.2,0-0.3c5.9-2.3,12.1-3.4,18-3.3
			c1.7,0,3.1-0.9,3.5-2.4c0.3-1,0.1-2.1-0.5-2.9c-0.6-0.8-1.6-1.3-2.6-1.4c-4.2-0.1-8.6,0.3-12.9,1.3c-0.2,0-0.3-0.2-0.1-0.3
			c4.6-2.8,9.5-4.8,14.6-6.1c1.6-0.4,2.7-1.8,2.7-3.3c0-1-0.5-2-1.3-2.6c-0.8-0.6-1.9-0.8-2.9-0.6c-11.9,3-23.2,9.9-31.7,19.7
			c-0.7,0.8-1.7,1-2.7,0.6l-104-42c-1.7-0.7-3.7,0.1-4.4,1.8l0,0c-0.7,1.7,0.1,3.7,1.8,4.4l104,42c1,0.4,1.6,1.3,1.5,2.3
			c-0.6,12.9,2.6,25.8,9.1,36.2C286.7,248.6,287.6,249.1,288.6,249.3z"/>
		<path d="M27.9,67.3c-1-0.1-2,0.3-2.8,1c-1.1,1.1-1.2,2.8-0.3,4.2c2.8,4.4,4.9,9.3,6.2,14.5
			c0,0.2-0.2,0.3-0.3,0.1c-2.4-3.7-5.2-7-8.3-9.8c-1.2-1.1-3-1.2-4.2-0.4c-0.9,0.6-1.4,1.5-1.5,2.5c-0.1,1,0.3,2,1.1,2.7
			c4.4,4,8.1,9.1,10.8,15c0.1,0.1-0.1,0.3-0.2,0.2c-4.6-3.7-9.6-6.8-14.7-9.3c-1.6-0.8-3.6-0.3-4.4,1.2C8.7,90,8.6,91,8.9,91.9
			c0.3,0.9,0.9,1.7,1.8,2.1c6,2.9,11.6,6.7,16.8,11.3c0.1,0.1,0,0.3-0.1,0.3c-6.8-0.3-13.5-1.5-19.8-3.5c-1.5-0.5-3.2,0.1-4,1.4
			c-0.6,0.9-0.7,2-0.3,2.9c0.4,1,1.1,1.7,2.1,2c5.5,1.8,11.3,3,17.2,3.6c0.2,0,0.2,0.2,0,0.3c-5.9,2.3-12.1,3.4-18,3.3
			c-1.7,0-3.1,0.9-3.5,2.4c-0.3,1-0.1,2.1,0.5,2.9c0.6,0.8,1.6,1.3,2.6,1.4c4.2,0.1,8.6-0.3,12.9-1.3c0.2,0,0.3,0.2,0.1,0.3
			c-4.6,2.8-9.5,4.8-14.6,6.1C1.1,127.7,0,129,0,130.5c0,1,0.5,2,1.3,2.6c0.8,0.6,1.9,0.8,2.9,0.6c11.9-3,23.2-9.9,31.7-19.7
			c0.7-0.8,1.7-1,2.7-0.6l104,42c1.7,0.7,3.7-0.1,4.4-1.8l0,0c0.7-1.7-0.1-3.7-1.8-4.4l-104-42c-1-0.4-1.6-1.3-1.5-2.3
			c0.6-12.9-2.6-25.8-9.1-36.2C29.9,67.9,29,67.4,27.9,67.3z"/>
	</g>
	<path d="M314.8,130.4c0.8-0.6,1.3-1.6,1.3-2.7c0-1.5-1.1-2.9-2.8-3.2c-5.1-1.2-10-3.2-14.7-5.9
		c-0.1-0.1-0.1-0.3,0.1-0.3c4.3,0.9,8.6,1.3,12.8,1.1c1.6-0.1,3-1.2,3.2-2.7c0.2-1-0.1-2.1-0.8-2.8c-0.7-0.8-1.7-1.2-2.7-1.1
		c-5.9,0.3-12.2-0.7-18.2-3c-0.1-0.1-0.1-0.3,0-0.3c5.9-0.7,11.6-2,17-3.8c1.7-0.6,2.7-2.3,2.3-4c-0.2-0.9-0.8-1.7-1.6-2.1
		c-0.8-0.5-1.8-0.5-2.7-0.2c-6.3,2.2-13,3.5-19.8,3.9c-0.1,0-0.2-0.2-0.1-0.3c5-4.6,10.6-8.5,16.5-11.5c1.4-0.7,2.2-2.3,1.9-3.8
		c-0.2-1-0.9-1.8-1.9-2.3c-0.9-0.4-2-0.4-2.9,0.1c-5.2,2.6-10.1,5.9-14.7,9.6c-0.1,0.1-0.3,0-0.2-0.2c2.6-5.8,6.1-11,10.4-15
		c1.2-1.1,1.5-2.9,0.8-4.2c-0.5-0.9-1.4-1.5-2.4-1.7c-1-0.2-2,0.2-2.8,0.9c-3.1,2.9-5.9,6.3-8.2,10c-0.1,0.1-0.3,0.1-0.3-0.1
		c1.3-5.2,3.3-10.1,6-14.6c0.8-1.4,0.7-3.2-0.4-4.2c-0.7-0.7-1.8-1.1-2.8-0.9c-1,0.1-1.9,0.7-2.4,1.6c-6.3,10.5-9.4,23.4-8.5,36.3
		c0.1,1-0.5,1.9-1.5,2.3l-103.2,43.8c-1.7,0.7-2.5,2.7-1.8,4.4l0,0c0.7,1.7,2.7,2.5,4.4,1.8l103.2-43.8c0.9-0.4,2-0.2,2.7,0.6
		c8.7,9.6,20,16.4,32,19.1C312.9,131.3,314,131.1,314.8,130.4z"/>
	<path d="M1.8,186.1c-0.8,0.6-1.3,1.6-1.3,2.7c0,1.5,1.1,2.9,2.8,3.2c5.1,1.2,10,3.2,14.7,5.9
		c0.1,0.1,0.1,0.3-0.1,0.3c-4.3-0.9-8.6-1.3-12.8-1.1c-1.6,0.1-3,1.2-3.2,2.7c-0.2,1,0.1,2.1,0.8,2.8c0.7,0.8,1.7,1.2,2.7,1.1
		c5.9-0.3,12.2,0.7,18.2,3c0.1,0.1,0.1,0.3,0,0.3c-5.9,0.7-11.6,2-17,3.8c-1.7,0.6-2.7,2.3-2.3,4c0.2,0.9,0.8,1.7,1.6,2.1
		c0.8,0.5,1.8,0.5,2.7,0.2c6.3-2.2,13-3.5,19.8-3.9c0.1,0,0.2,0.2,0.1,0.3c-5,4.6-10.6,8.5-16.5,11.5c-1.4,0.7-2.2,2.3-1.9,3.8
		c0.2,1,0.9,1.8,1.9,2.3c0.9,0.4,2,0.4,2.9-0.1c5.2-2.6,10.1-5.9,14.7-9.6c0.1-0.1,0.3,0,0.2,0.2c-2.6,5.8-6.1,11-10.4,15
		c-1.2,1.1-1.5,2.9-0.8,4.2c0.5,0.9,1.4,1.5,2.4,1.7c1,0.2,2-0.2,2.8-0.9c3.1-2.9,5.9-6.3,8.2-10c0.1-0.1,0.3-0.1,0.3,0.1
		c-1.3,5.2-3.3,10.1-6,14.6c-0.8,1.4-0.7,3.2,0.4,4.2c0.7,0.7,1.8,1.1,2.8,0.9c1-0.1,1.9-0.7,2.4-1.6c6.3-10.5,9.4-23.4,8.5-36.3
		c-0.1-1,0.5-1.9,1.5-2.3l103.2-43.8c1.7-0.7,2.5-2.7,1.8-4.4l0,0c-0.7-1.7-2.7-2.5-4.4-1.8L39.3,205.1c-0.9,0.4-2,0.2-2.7-0.6
		c-8.7-9.6-20-16.4-32-19.1C3.6,185.2,2.6,185.4,1.8,186.1z"/>
	<g>
		<path d="M186.1,314.8c0.6,0.8,1.6,1.3,2.7,1.3c1.5,0,2.9-1.1,3.2-2.8c1.2-5.1,3.2-10,5.9-14.7
			c0.1-0.1,0.3-0.1,0.3,0.1c-0.9,4.3-1.3,8.6-1.1,12.8c0.1,1.6,1.2,3,2.7,3.2c1,0.2,2.1-0.1,2.8-0.8c0.8-0.7,1.2-1.7,1.1-2.7
			c-0.3-5.9,0.7-12.2,3-18.2c0.1-0.1,0.3-0.1,0.3,0c0.7,5.9,2,11.6,3.8,17c0.6,1.7,2.3,2.7,4,2.3c0.9-0.2,1.7-0.8,2.1-1.6
			c0.5-0.8,0.5-1.8,0.2-2.7c-2.2-6.3-3.5-13-3.9-19.8c0-0.1,0.2-0.2,0.3-0.1c4.6,5,8.5,10.6,11.5,16.5c0.7,1.4,2.3,2.2,3.8,1.9
			c1-0.2,1.8-0.9,2.3-1.9c0.4-0.9,0.4-2-0.1-2.9c-2.6-5.2-5.9-10.1-9.6-14.7c-0.1-0.1,0-0.3,0.2-0.2c5.8,2.6,11,6.1,15,10.4
			c1.1,1.2,2.9,1.5,4.2,0.8c0.9-0.5,1.5-1.4,1.7-2.4c0.2-1-0.2-2-0.9-2.8c-2.9-3.1-6.3-5.9-10-8.2c-0.1-0.1-0.1-0.3,0.1-0.3
			c5.2,1.3,10.1,3.3,14.6,6c1.4,0.8,3.2,0.7,4.2-0.4c0.7-0.7,1.1-1.8,0.9-2.8c-0.1-1-0.7-1.9-1.6-2.4c-10.5-6.3-23.4-9.4-36.3-8.5
			c-1,0.1-1.9-0.5-2.3-1.5l-43.8-103.2c-0.7-1.7-2.7-2.5-4.4-1.8h0c-1.7,0.7-2.5,2.7-1.8,4.4l43.8,103.2c0.4,0.9,0.2,2-0.6,2.7
			c-9.6,8.7-16.4,20-19.1,32C185.2,312.9,185.4,314,186.1,314.8z"/>
		<path d="M130.4,1.8c-0.6-0.8-1.6-1.3-2.7-1.3c-1.5,0-2.9,1.1-3.2,2.8c-1.2,5.1-3.2,10-5.9,14.7
			c-0.1,0.1-0.3,0.1-0.3-0.1c0.9-4.3,1.3-8.6,1.1-12.8c-0.1-1.6-1.2-3-2.7-3.2c-1-0.2-2.1,0.1-2.8,0.8c-0.8,0.7-1.2,1.7-1.1,2.7
			c0.3,5.9-0.7,12.2-3,18.2c-0.1,0.1-0.3,0.1-0.3,0c-0.7-5.9-2-11.6-3.8-17c-0.6-1.7-2.3-2.7-4-2.3c-0.9,0.2-1.7,0.8-2.1,1.6
			c-0.5,0.8-0.5,1.8-0.2,2.7c2.2,6.3,3.5,13,3.9,19.8c0,0.1-0.2,0.2-0.3,0.1c-4.6-5-8.5-10.6-11.5-16.5c-0.7-1.4-2.3-2.2-3.8-1.9
			c-1,0.2-1.8,0.9-2.3,1.9c-0.4,0.9-0.4,2,0.1,2.9c2.6,5.2,5.9,10.1,9.6,14.7c0.1,0.1,0,0.3-0.2,0.2c-5.8-2.6-11-6.1-15-10.4
			c-1.1-1.2-2.9-1.5-4.2-0.8C74.8,19.1,74.2,20,74,21c-0.2,1,0.2,2,0.9,2.8c2.9,3.1,6.3,5.9,10,8.2c0.1,0.1,0.1,0.3-0.1,0.3
			c-5.2-1.3-10.1-3.3-14.6-6c-1.4-0.8-3.2-0.7-4.2,0.4c-0.7,0.7-1.1,1.8-0.9,2.8c0.1,1,0.7,1.9,1.6,2.4c10.5,6.3,23.4,9.4,36.3,8.5
			c1-0.1,1.9,0.5,2.3,1.5l43.8,103.2c0.7,1.7,2.7,2.5,4.4,1.8v0c1.7-0.7,2.5-2.7,1.8-4.4L111.4,39.3c-0.4-0.9-0.2-2,0.6-2.7
			c9.6-8.7,16.4-20,19.1-32C131.3,3.6,131.1,2.6,130.4,1.8z"/>
	</g>
	<g>
		<path d="M127.2,286.9c0.3,0.9,0.9,1.6,1.8,2c0,0,0,0,0,0c1.3,0.5,2.8,0.1,3.7-1.1c2.7-3.7,6-7,9.7-9.8
			c-2.2,3.2-4,6.5-5.3,10c-0.5,1.4,0,2.9,1.1,3.7c0.8,0.5,1.8,0.7,2.6,0.4c0.9-0.3,1.6-1,1.9-1.8c1.8-4.8,4.7-9.5,8.6-13.6
			c-1.5,5-2.4,10-2.7,15c-0.1,1.6,1,3.1,2.5,3.3c0.8,0.1,1.7-0.1,2.4-0.6c0.7-0.5,1.1-1.3,1.1-2.2c0.4-5.8,1.6-11.6,3.6-17.3
			c2,5.6,3.2,11.4,3.6,17.2c0.1,1.5,1.2,2.7,2.5,2.9c0.9,0.2,1.9-0.1,2.6-0.7c0.7-0.6,1.1-1.5,1-2.5c-0.3-5.1-1.3-10.2-2.7-15.2
			c3.8,4,6.8,8.7,8.5,13.5c0.5,1.4,1.9,2.3,3.2,2.1c0.9-0.1,1.8-0.6,2.3-1.4c0.5-0.8,0.6-1.8,0.3-2.6c-1.3-3.5-3.1-6.9-5.3-10.1
			c3.8,2.8,7.1,6.1,9.7,9.8c0.9,1.2,2.4,1.7,3.7,1.1c0.9-0.4,1.5-1.1,1.8-2c0.3-0.9,0.1-1.9-0.5-2.6c-6.3-8.7-15.7-15.5-26.3-19.2
			c-0.8-0.3-1.3-1-1.3-1.9l-0.1-76.2c0-1.7-1.4-3-3.1-3l0,0c-1.7,0-3,1.4-3,3l0.1,76.2c0,0.8-0.5,1.6-1.3,1.9
			c-10.7,3.7-20,10.5-26.3,19.2C127.1,285,127,286,127.2,286.9z"/>
		<path d="M189.3,29.6c-0.3-0.9-0.9-1.6-1.8-2c0,0,0,0,0,0c-1.3-0.5-2.8-0.1-3.7,1.1c-2.7,3.7-6,7-9.7,9.8
			c2.2-3.2,4-6.5,5.3-10c0.5-1.4,0-2.9-1.1-3.7c-0.8-0.5-1.8-0.7-2.6-0.4c-0.9,0.3-1.6,1-1.9,1.8c-1.8,4.8-4.7,9.5-8.6,13.6
			c1.5-5,2.4-10,2.7-15c0.1-1.6-1-3.1-2.5-3.3c-0.8-0.1-1.7,0.1-2.4,0.6c-0.7,0.5-1.1,1.3-1.1,2.2c-0.4,5.8-1.6,11.6-3.6,17.3
			c-2-5.6-3.2-11.4-3.6-17.2c-0.1-1.5-1.2-2.7-2.5-2.9c-0.9-0.2-1.9,0.1-2.6,0.7c-0.7,0.6-1.1,1.5-1,2.5c0.3,5.1,1.3,10.2,2.7,15.2
			c-3.8-4-6.8-8.7-8.5-13.5c-0.5-1.4-1.9-2.3-3.2-2.1c-0.9,0.1-1.8,0.6-2.3,1.4c-0.5,0.8-0.6,1.8-0.3,2.6c1.3,3.5,3.1,6.9,5.3,10.1
			c-3.8-2.8-7.1-6.1-9.7-9.8c-0.9-1.2-2.4-1.7-3.7-1.1c-0.9,0.4-1.5,1.1-1.8,2c-0.3,0.9-0.1,1.9,0.5,2.6
			c6.3,8.7,15.7,15.5,26.3,19.2c0.8,0.3,1.3,1,1.3,1.9l0.1,76.2c0,1.7,1.4,3,3.1,3h0c1.7,0,3-1.4,3-3l-0.1-76.2
			c0-0.8,0.5-1.6,1.3-1.9c10.7-3.7,20-10.5,26.3-19.2C189.4,31.5,189.6,30.5,189.3,29.6z"/>
	</g>
	<g>
		<path d="M271.2,89.3c0.5-0.8,0.5-1.8,0.1-2.7c0,0,0,0,0,0c-0.5-1.3-1.9-2-3.4-1.8c-4.5,0.7-9.2,0.7-13.8,0
			c3.8-0.7,7.5-1.8,10.8-3.4c1.3-0.6,2.1-2,1.8-3.4c-0.2-0.9-0.8-1.7-1.6-2.1c-0.8-0.4-1.8-0.4-2.6,0c-4.7,2.2-10.1,3.4-15.7,3.6
			c4.5-2.5,8.8-5.4,12.6-8.7c1.2-1.1,1.5-2.9,0.6-4.1c-0.5-0.7-1.3-1.2-2.1-1.2c-0.8-0.1-1.7,0.2-2.4,0.7c-4.4,3.8-9.4,7.1-14.8,9.7
			c2.6-5.4,5.8-10.3,9.6-14.7c1-1.1,1.1-2.7,0.3-3.8c-0.6-0.8-1.4-1.2-2.3-1.3c-0.9,0-1.8,0.3-2.4,1c-3.3,3.8-6.3,8.1-8.8,12.7
			c0.2-5.6,1.4-10.9,3.5-15.6c0.6-1.4,0.3-2.9-0.8-3.8c-0.7-0.6-1.7-0.8-2.6-0.6c-0.9,0.2-1.7,0.8-2.1,1.7
			c-1.6,3.4-2.7,7.1-3.4,10.9c-0.7-4.7-0.7-9.3,0-13.8c0.2-1.5-0.5-2.9-1.8-3.4c-0.9-0.4-1.9-0.3-2.7,0.2c-0.8,0.5-1.4,1.2-1.5,2.2
			c-1.7,10.6,0.1,22.1,5,32.2c0.4,0.7,0.2,1.6-0.4,2.2l-53.8,53.9c-1.2,1.2-1.2,3.1,0,4.3l0,0c1.2,1.2,3.1,1.2,4.3,0l53.8-53.9
			c0.6-0.6,1.5-0.8,2.2-0.4c10.2,4.9,21.6,6.7,32.2,5C269.9,90.6,270.7,90.1,271.2,89.3z"/>
		<path d="M45.4,227.3c-0.5,0.8-0.5,1.8-0.1,2.7c0,0,0,0,0,0c0.5,1.3,1.9,2,3.4,1.8c4.5-0.7,9.2-0.7,13.8,0
			c-3.8,0.7-7.5,1.8-10.8,3.4c-1.3,0.6-2.1,2-1.8,3.4c0.2,0.9,0.8,1.7,1.6,2.1c0.8,0.4,1.8,0.4,2.6,0c4.7-2.2,10.1-3.4,15.7-3.6
			c-4.5,2.5-8.8,5.4-12.6,8.7c-1.2,1.1-1.5,2.9-0.6,4.1c0.5,0.7,1.3,1.2,2.1,1.2c0.8,0.1,1.7-0.2,2.4-0.7c4.4-3.8,9.4-7.1,14.8-9.7
			c-2.6,5.4-5.8,10.3-9.6,14.7c-1,1.1-1.1,2.7-0.3,3.8c0.6,0.8,1.4,1.2,2.3,1.3c0.9,0,1.8-0.3,2.4-1c3.3-3.8,6.3-8.1,8.8-12.7
			c-0.2,5.6-1.4,10.9-3.5,15.6c-0.6,1.4-0.3,2.9,0.8,3.8c0.7,0.6,1.7,0.8,2.6,0.6c0.9-0.2,1.7-0.8,2.1-1.7c1.6-3.4,2.7-7.1,3.4-10.9
			c0.7,4.7,0.7,9.3,0,13.8c-0.2,1.5,0.5,2.9,1.8,3.4c0.9,0.4,1.9,0.3,2.7-0.2c0.8-0.5,1.4-1.2,1.5-2.2c1.7-10.6-0.1-22.1-5-32.2
			c-0.4-0.7-0.2-1.6,0.4-2.2l53.8-53.9c1.2-1.2,1.2-3.1,0-4.3l0,0c-1.2-1.2-3.1-1.2-4.3,0L82,230.4c-0.6,0.6-1.5,0.8-2.2,0.4
			c-10.2-4.9-21.6-6.7-32.2-5C46.6,225.9,45.8,226.4,45.4,227.3z"/>
	</g>
	<g>
		<path d="M89.3,45.4c-0.8-0.5-1.8-0.5-2.7-0.1c0,0,0,0,0,0c-1.3,0.5-2,1.9-1.8,3.4c0.7,4.5,0.7,9.2,0,13.8
			c-0.7-3.8-1.8-7.5-3.4-10.8c-0.6-1.3-2-2.1-3.4-1.8c-0.9,0.2-1.7,0.8-2.1,1.6c-0.4,0.8-0.4,1.8,0,2.6c2.2,4.7,3.4,10.1,3.6,15.7
			c-2.5-4.5-5.4-8.8-8.7-12.6c-1.1-1.2-2.9-1.5-4.1-0.6c-0.7,0.5-1.2,1.3-1.2,2.1c-0.1,0.8,0.2,1.7,0.7,2.4
			c3.8,4.4,7.1,9.4,9.7,14.8c-5.4-2.6-10.3-5.8-14.7-9.6c-1.1-1-2.7-1.1-3.8-0.3c-0.8,0.6-1.2,1.4-1.3,2.3c0,0.9,0.3,1.8,1,2.4
			c3.8,3.3,8.1,6.3,12.7,8.8c-5.6-0.2-10.9-1.4-15.6-3.5c-1.4-0.6-2.9-0.3-3.8,0.8c-0.6,0.7-0.8,1.7-0.6,2.6
			c0.2,0.9,0.8,1.7,1.7,2.1c3.4,1.6,7.1,2.7,10.9,3.4c-4.7,0.7-9.3,0.7-13.8,0c-1.5-0.2-2.9,0.5-3.4,1.8c-0.4,0.9-0.3,1.9,0.2,2.7
			c0.5,0.8,1.2,1.4,2.2,1.5c10.6,1.7,22.1-0.1,32.2-5c0.7-0.4,1.6-0.2,2.2,0.4l53.9,53.8c1.2,1.2,3.1,1.2,4.3,0l0,0
			c1.2-1.2,1.2-3.1,0-4.3L86.2,82c-0.6-0.6-0.8-1.5-0.4-2.2c4.9-10.2,6.7-21.6,5-32.2C90.6,46.6,90.1,45.8,89.3,45.4z"/>
		<path d="M227.3,271.2c0.8,0.5,1.8,0.5,2.7,0.1c0,0,0,0,0,0c1.3-0.5,2-1.9,1.8-3.4c-0.7-4.5-0.7-9.2,0-13.8
			c0.7,3.8,1.8,7.5,3.4,10.8c0.6,1.3,2,2.1,3.4,1.8c0.9-0.2,1.7-0.8,2.1-1.6c0.4-0.8,0.4-1.8,0-2.6c-2.2-4.7-3.4-10.1-3.6-15.7
			c2.5,4.5,5.4,8.8,8.7,12.6c1.1,1.2,2.9,1.5,4.1,0.6c0.7-0.5,1.2-1.3,1.2-2.1c0.1-0.8-0.2-1.7-0.7-2.4c-3.8-4.4-7.1-9.4-9.7-14.8
			c5.4,2.6,10.3,5.8,14.7,9.6c1.1,1,2.7,1.1,3.8,0.3c0.8-0.6,1.2-1.4,1.3-2.3c0-0.9-0.3-1.8-1-2.4c-3.8-3.3-8.1-6.3-12.7-8.8
			c5.6,0.2,10.9,1.4,15.6,3.5c1.4,0.6,2.9,0.3,3.8-0.8c0.6-0.7,0.8-1.7,0.6-2.6c-0.2-0.9-0.8-1.7-1.7-2.1c-3.4-1.6-7.1-2.7-10.9-3.4
			c4.7-0.7,9.3-0.7,13.8,0c1.5,0.2,2.9-0.5,3.4-1.8c0.4-0.9,0.3-1.9-0.2-2.7c-0.5-0.8-1.2-1.4-2.2-1.5c-10.6-1.7-22.1,0.1-32.2,5
			c-0.7,0.4-1.6,0.2-2.2-0.4l-53.9-53.8c-1.2-1.2-3.1-1.2-4.3,0l0,0c-1.2,1.2-1.2,3.1,0,4.3l53.9,53.8c0.6,0.6,0.8,1.5,0.4,2.2
			c-4.9,10.2-6.7,21.6-5,32.2C225.9,269.9,226.4,270.7,227.3,271.2z"/>
	</g>
	<g>
		<path d="M29.6,127.2c-0.9,0.3-1.6,0.9-2,1.8c0,0,0,0,0,0c-0.5,1.3-0.1,2.8,1.1,3.7c3.7,2.7,7,6,9.8,9.7
			c-3.2-2.2-6.5-4-10-5.3c-1.4-0.5-2.9,0-3.7,1.1c-0.5,0.8-0.7,1.8-0.4,2.6c0.3,0.9,1,1.6,1.8,1.9c4.8,1.8,9.5,4.7,13.6,8.6
			c-5-1.5-10-2.4-15-2.7c-1.6-0.1-3.1,1-3.3,2.5c-0.1,0.8,0.1,1.7,0.6,2.4c0.5,0.7,1.3,1.1,2.2,1.1c5.8,0.4,11.6,1.6,17.3,3.6
			c-5.6,2-11.4,3.2-17.2,3.6c-1.5,0.1-2.7,1.2-2.9,2.5c-0.2,0.9,0.1,1.9,0.7,2.6c0.6,0.7,1.5,1.1,2.5,1c5.1-0.3,10.2-1.3,15.2-2.7
			c-4,3.8-8.7,6.8-13.5,8.5c-1.4,0.5-2.3,1.9-2.1,3.2c0.1,0.9,0.6,1.8,1.4,2.3c0.8,0.5,1.8,0.6,2.6,0.3c3.5-1.3,6.9-3.1,10.1-5.3
			c-2.8,3.8-6.1,7.1-9.8,9.7c-1.2,0.9-1.7,2.4-1.1,3.7c0.4,0.9,1.1,1.5,2,1.8c0.9,0.3,1.9,0.1,2.6-0.5c8.7-6.3,15.5-15.7,19.2-26.3
			c0.3-0.8,1-1.3,1.9-1.3l76.2-0.1c1.7,0,3-1.4,3-3.1l0,0c0-1.7-1.4-3-3-3l-76.2,0.1c-0.8,0-1.6-0.5-1.9-1.3
			c-3.7-10.7-10.5-20-19.2-26.3C31.5,127.1,30.5,127,29.6,127.2z"/>
		<path d="M286.9,189.3c0.9-0.3,1.6-0.9,2-1.8c0,0,0,0,0,0c0.5-1.3,0.1-2.8-1.1-3.7c-3.7-2.7-7-6-9.8-9.7
			c3.2,2.2,6.5,4,10,5.3c1.4,0.5,2.9,0,3.7-1.1c0.5-0.8,0.7-1.8,0.4-2.6c-0.3-0.9-1-1.6-1.8-1.9c-4.8-1.8-9.5-4.7-13.6-8.6
			c5,1.5,10,2.4,15,2.7c1.6,0.1,3.1-1,3.3-2.5c0.1-0.8-0.1-1.7-0.6-2.4c-0.5-0.7-1.3-1.1-2.2-1.1c-5.8-0.4-11.6-1.6-17.3-3.6
			c5.6-2,11.4-3.2,17.2-3.6c1.5-0.1,2.7-1.2,2.9-2.5c0.2-0.9-0.1-1.9-0.7-2.6c-0.6-0.7-1.5-1.1-2.5-1c-5.1,0.3-10.2,1.3-15.2,2.7
			c4-3.8,8.7-6.8,13.5-8.5c1.4-0.5,2.3-1.9,2.1-3.2c-0.1-0.9-0.6-1.8-1.4-2.3c-0.8-0.5-1.8-0.6-2.6-0.3c-3.5,1.3-6.9,3.1-10.1,5.3
			c2.8-3.8,6.1-7.1,9.8-9.7c1.2-0.9,1.7-2.4,1.1-3.7c-0.4-0.9-1.1-1.5-2-1.8c-0.9-0.3-1.9-0.1-2.6,0.5c-8.7,6.3-15.5,15.7-19.2,26.3
			c-0.3,0.8-1,1.3-1.9,1.3l-76.2,0.1c-1.7,0-3,1.4-3,3.1v0c0,1.7,1.4,3,3,3l76.2-0.1c0.8,0,1.6,0.5,1.9,1.3
			c3.7,10.7,10.5,20,19.2,26.3C285,189.4,286,189.6,286.9,189.3z"/>
	</g>
	<path d="M355.1,61.7C355.1,61.7,355.1,61.7,355.1,61.7c-9.3,14.4-19.7,25.7-30.7,31.2
		c-1.3,0.6-1.1,2.5,0.5,4.4c0.7,0.8,1.5,1.4,2.3,1.9c1.1,0.6,2.2,0.7,2.9,0.3c10.6-6.2,20.5-17.5,29.4-31.4c0.4-0.6,0.9-1.3,1.4-1.9
		c0.5-0.8,1.4-1.1,2.3-0.7c11.6,4.5,23.5,6,32.7,1.9c0.8-0.3,1.3-1.2,1.5-2.4c0.2-1.2,0-2.6-0.6-3.7c-0.8-1.7-2.2-2.4-3.5-1.8
		c-3.9,1.9-8.2,2.6-12.8,2.5c3.5-1.5,6.6-3.6,9.2-6.5c1-1.1,1.3-3.3,0.7-5.1c-0.4-1.2-1.1-2.2-2-2.5c-0.9-0.4-1.7-0.2-2.4,0.6
		c-3.7,4.1-8.6,6.8-14.1,7.9c3.9-3.9,7.2-8.6,9.9-14.1c0.9-1.8,0.6-4.3-0.5-5.8c-0.6-0.8-1.5-1.2-2.3-1.1c-0.8,0.1-1.5,0.7-2,1.7
		c-3.1,6.4-7.2,11.7-12.2,15.8c1.4-7.1,3.4-14,6-20.9c0.7-1.8,0.4-3.9-0.7-5.1c-0.7-0.8-1.6-1.1-2.5-0.8c-0.9,0.3-1.7,1.1-2.1,2.2
		c-2.3,6-4.4,12-5.9,18c-1.1-6.7-1-13.4,0.1-19.8c0.3-1.9-0.3-3.7-1.6-4.3c-0.9-0.4-1.8-0.3-2.7,0.3c-0.9,0.6-1.5,1.6-1.7,2.8
		c-0.9,4.6-1.3,9.1-1.3,13.8c-1.7-5.2-2.6-10.5-2.7-15.9c0-1.8-1.1-3.1-2.5-3.2c0,0,0,0,0,0c-1,0-2,0.4-2.7,1.2
		c-0.8,0.8-1.2,1.9-1.2,3c0.1,12.1,4,23.6,11.8,34.9c0.6,0.8,0.6,1.8,0,2.6"/>
</g>
</svg>
